<svg width="126" height="134" viewBox="0 0 126 134" fill="none" xmlns="http://www.w3.org/2000/svg">
<path d="M6.744 128V121.16L0.072 111.2H2.232L7.728 119.528L13.2 111.2H15.288L8.592 121.232V128H6.744ZM24.0384 126.728C23.3664 127.224 22.6624 127.6 21.9264 127.856C21.2064 128.096 20.4144 128.216 19.5504 128.216C18.6864 128.216 17.8704 128.056 17.1024 127.736C16.3504 127.416 15.6944 126.976 15.1344 126.416C14.5904 125.856 14.1584 125.2 13.8384 124.448C13.5184 123.68 13.3584 122.856 13.3584 121.976C13.3584 121.112 13.5104 120.304 13.8144 119.552C14.1344 118.8 14.5584 118.144 15.0864 117.584C15.6144 117.024 16.2384 116.584 16.9584 116.264C17.6944 115.944 18.4704 115.784 19.2864 115.784C20.0864 115.784 20.8304 115.944 21.5184 116.264C22.2224 116.584 22.8224 117.024 23.3184 117.584C23.8304 118.144 24.2304 118.8 24.5184 119.552C24.8224 120.304 24.9744 121.112 24.9744 121.976V122.528H15.1104C15.2384 123.712 15.7264 124.696 16.5744 125.48C17.4224 126.264 18.4384 126.656 19.6224 126.656C20.2464 126.656 20.8544 126.56 21.4464 126.368C22.0384 126.176 22.5344 125.904 22.9344 125.552L24.0384 126.728ZM19.2384 117.344C18.1984 117.344 17.2944 117.696 16.5264 118.4C15.7744 119.104 15.3184 120.008 15.1584 121.112H23.1984C23.0384 120.056 22.5824 119.168 21.8304 118.448C21.0944 117.712 20.2304 117.344 19.2384 117.344ZM31.0618 128.216C29.7498 128.216 28.6778 127.88 27.8458 127.208C27.0298 126.536 26.6218 125.664 26.6218 124.592C26.6218 123.472 27.0538 122.584 27.9178 121.928C28.7818 121.256 29.9498 120.92 31.4218 120.92C32.0618 120.92 32.6778 120.992 33.2698 121.136C33.8778 121.28 34.4378 121.48 34.9498 121.736V120.152C34.9498 119.192 34.6778 118.472 34.1338 117.992C33.5898 117.496 32.7978 117.248 31.7578 117.248C31.1658 117.248 30.5658 117.336 29.9578 117.512C29.3658 117.672 28.7098 117.936 27.9898 118.304L27.3178 116.936C28.1818 116.52 28.9818 116.216 29.7178 116.024C30.4538 115.832 31.1898 115.736 31.9258 115.736C33.4458 115.736 34.6138 116.096 35.4298 116.816C36.2618 117.536 36.6778 118.568 36.6778 119.912V128H34.9498V126.824C34.4058 127.288 33.8058 127.64 33.1498 127.88C32.5098 128.104 31.8138 128.216 31.0618 128.216ZM28.3258 124.544C28.3258 125.216 28.6058 125.768 29.1658 126.2C29.7418 126.616 30.4778 126.824 31.3738 126.824C32.0938 126.824 32.7498 126.712 33.3418 126.488C33.9338 126.264 34.4698 125.912 34.9498 125.432V123.176C34.4538 122.84 33.9178 122.6 33.3418 122.456C32.7818 122.296 32.1578 122.216 31.4698 122.216C30.5098 122.216 29.7418 122.432 29.1658 122.864C28.6058 123.28 28.3258 123.84 28.3258 124.544ZM39.6448 128V115.976H41.4208V117.68C41.7728 117.056 42.2368 116.576 42.8128 116.24C43.3888 115.888 44.0448 115.712 44.7808 115.712C45.0048 115.712 45.2048 115.728 45.3808 115.76C45.5568 115.776 45.7328 115.816 45.9088 115.88V117.512C45.7008 117.448 45.4928 117.4 45.2848 117.368C45.0768 117.32 44.8688 117.296 44.6608 117.296C43.9248 117.296 43.2768 117.512 42.7168 117.944C42.1568 118.36 41.7248 118.968 41.4208 119.768V128H39.6448ZM49.7177 110.792V128H47.9417V111.2L49.7177 110.792ZM55.5544 129.56L56.2504 127.976L51.3544 115.976H53.3224L57.2104 125.84L61.4104 115.976H63.3304L57.3544 129.8C56.8424 130.952 56.2744 131.784 55.6504 132.296C55.0264 132.808 54.2344 133.064 53.2744 133.064C53.0504 133.064 52.8344 133.048 52.6264 133.016C52.4344 133 52.2744 132.976 52.1464 132.944V131.336C52.3064 131.368 52.4584 131.392 52.6024 131.408C52.7624 131.424 52.9464 131.432 53.1544 131.432C53.6984 131.432 54.1624 131.28 54.5464 130.976C54.9304 130.672 55.2664 130.2 55.5544 129.56ZM68.889 125.12L70.113 123.848C70.977 124.76 71.897 125.456 72.873 125.936C73.865 126.4 74.905 126.632 75.993 126.632C77.305 126.632 78.385 126.32 79.233 125.696C80.081 125.072 80.505 124.28 80.505 123.32C80.505 122.456 80.201 121.792 79.593 121.328C79.001 120.864 78.017 120.52 76.641 120.296L74.217 119.912C72.601 119.656 71.409 119.184 70.641 118.496C69.873 117.792 69.489 116.848 69.489 115.664C69.489 114.272 70.033 113.144 71.121 112.28C72.209 111.416 73.633 110.984 75.393 110.984C76.561 110.984 77.721 111.176 78.873 111.56C80.025 111.944 81.073 112.496 82.017 113.216L80.961 114.656C80.049 113.968 79.121 113.448 78.177 113.096C77.233 112.744 76.281 112.568 75.321 112.568C74.121 112.568 73.145 112.848 72.393 113.408C71.657 113.952 71.289 114.656 71.289 115.52C71.289 116.304 71.553 116.904 72.081 117.32C72.609 117.736 73.481 118.04 74.697 118.232L77.097 118.616C78.921 118.92 80.249 119.44 81.081 120.176C81.929 120.912 82.353 121.928 82.353 123.224C82.353 123.96 82.193 124.64 81.873 125.264C81.569 125.872 81.129 126.4 80.553 126.848C79.993 127.28 79.313 127.624 78.513 127.88C77.729 128.12 76.865 128.24 75.921 128.24C74.593 128.24 73.313 127.976 72.081 127.448C70.865 126.904 69.801 126.128 68.889 125.12ZM88.7884 128.216C87.4764 128.216 86.4044 127.88 85.5724 127.208C84.7564 126.536 84.3484 125.664 84.3484 124.592C84.3484 123.472 84.7804 122.584 85.6444 121.928C86.5084 121.256 87.6764 120.92 89.1484 120.92C89.7884 120.92 90.4044 120.992 90.9964 121.136C91.6044 121.28 92.1644 121.48 92.6764 121.736V120.152C92.6764 119.192 92.4044 118.472 91.8604 117.992C91.3164 117.496 90.5244 117.248 89.4844 117.248C88.8924 117.248 88.2924 117.336 87.6844 117.512C87.0924 117.672 86.4364 117.936 85.7164 118.304L85.0444 116.936C85.9084 116.52 86.7084 116.216 87.4444 116.024C88.1804 115.832 88.9164 115.736 89.6524 115.736C91.1724 115.736 92.3404 116.096 93.1564 116.816C93.9884 117.536 94.4044 118.568 94.4044 119.912V128H92.6764V126.824C92.1324 127.288 91.5324 127.64 90.8764 127.88C90.2364 128.104 89.5404 128.216 88.7884 128.216ZM86.0524 124.544C86.0524 125.216 86.3324 125.768 86.8924 126.2C87.4684 126.616 88.2044 126.824 89.1004 126.824C89.8204 126.824 90.4764 126.712 91.0684 126.488C91.6604 126.264 92.1964 125.912 92.6764 125.432V123.176C92.1804 122.84 91.6444 122.6 91.0684 122.456C90.5084 122.296 89.8844 122.216 89.1964 122.216C88.2364 122.216 87.4684 122.432 86.8924 122.864C86.3324 123.28 86.0524 123.84 86.0524 124.544ZM99.1474 110.792V128H97.3714V111.2L99.1474 110.792ZM112.304 126.728C111.632 127.224 110.928 127.6 110.192 127.856C109.472 128.096 108.68 128.216 107.816 128.216C106.952 128.216 106.136 128.056 105.368 127.736C104.616 127.416 103.96 126.976 103.4 126.416C102.856 125.856 102.424 125.2 102.104 124.448C101.784 123.68 101.624 122.856 101.624 121.976C101.624 121.112 101.776 120.304 102.08 119.552C102.4 118.8 102.824 118.144 103.352 117.584C103.88 117.024 104.504 116.584 105.224 116.264C105.96 115.944 106.736 115.784 107.552 115.784C108.352 115.784 109.096 115.944 109.784 116.264C110.488 116.584 111.088 117.024 111.584 117.584C112.096 118.144 112.496 118.8 112.784 119.552C113.088 120.304 113.24 121.112 113.24 121.976V122.528H103.376C103.504 123.712 103.992 124.696 104.84 125.48C105.688 126.264 106.704 126.656 107.888 126.656C108.512 126.656 109.12 126.56 109.712 126.368C110.304 126.176 110.8 125.904 111.2 125.552L112.304 126.728ZM107.504 117.344C106.464 117.344 105.56 117.696 104.792 118.4C104.04 119.104 103.584 120.008 103.424 121.112H111.464C111.304 120.056 110.848 119.168 110.096 118.448C109.36 117.712 108.496 117.344 107.504 117.344ZM114.616 126.344L115.696 125.192C116.24 125.704 116.848 126.104 117.52 126.392C118.208 126.664 118.904 126.8 119.608 126.8C120.568 126.8 121.352 126.6 121.96 126.2C122.568 125.8 122.872 125.28 122.872 124.64C122.872 124.128 122.688 123.728 122.32 123.44C121.968 123.136 121.408 122.928 120.64 122.816L118.552 122.528C117.352 122.352 116.456 122 115.864 121.472C115.288 120.928 115 120.2 115 119.288C115 118.28 115.424 117.448 116.272 116.792C117.12 116.12 118.2 115.784 119.512 115.784C120.376 115.784 121.192 115.912 121.96 116.168C122.744 116.424 123.504 116.824 124.24 117.368L123.304 118.568C122.632 118.12 121.976 117.784 121.336 117.56C120.712 117.336 120.072 117.224 119.416 117.224C118.6 117.224 117.928 117.408 117.4 117.776C116.888 118.144 116.632 118.624 116.632 119.216C116.632 119.728 116.808 120.128 117.16 120.416C117.512 120.688 118.08 120.88 118.864 120.992L120.952 121.28C122.152 121.44 123.048 121.8 123.64 122.36C124.248 122.904 124.552 123.632 124.552 124.544C124.552 125.056 124.424 125.544 124.168 126.008C123.928 126.456 123.584 126.848 123.136 127.184C122.704 127.504 122.192 127.76 121.6 127.952C121.008 128.128 120.368 128.216 119.68 128.216C118.688 128.216 117.752 128.056 116.872 127.736C116.008 127.4 115.256 126.936 114.616 126.344Z" fill="#555555"/>
<path d="M9.128 55V49.624L24.584 35.792C26.3387 34.1867 27.5893 32.7867 28.336 31.592C29.0827 30.36 29.456 29.0907 29.456 27.784C29.456 26.0667 28.784 24.648 27.44 23.528C26.096 22.408 24.416 21.848 22.4 21.848C20.5333 21.848 18.7787 22.2213 17.136 22.968C15.5307 23.7147 13.776 24.9467 11.872 26.664L7.56 21.512C9.83733 19.4587 12.2453 17.9093 14.784 16.864C17.3227 15.8187 19.936 15.296 22.624 15.296C24.7147 15.296 26.6373 15.5947 28.392 16.192C30.184 16.752 31.696 17.5547 32.928 18.6C34.1973 19.6453 35.168 20.9147 35.84 22.408C36.5493 23.9013 36.904 25.5253 36.904 27.28C36.904 29.52 36.344 31.592 35.224 33.496C34.104 35.4 32.1627 37.584 29.4 40.048L19.824 48.56H37.408V55H9.128ZM63.6856 52.2L50.1336 26.16V55H42.6296V15.8H53.0456L63.7976 36.856L74.5496 15.8H84.9656V55H77.2936V26.216L63.6856 52.2ZM106.908 47.776H100.916V37.864H91.0604V31.928H100.916V22.296H106.908V31.928H116.708V37.864H106.908V47.776Z" fill="#222222"/>
<line x1="8" y1="72.5" x2="120" y2="72.5" stroke="#222222" stroke-width="3"/>
</svg>
