<svg width="186" height="134" viewBox="0 0 186 134" fill="none" xmlns="http://www.w3.org/2000/svg">
<path d="M18.36 119.6C18.36 120.8 18.136 121.936 17.688 123.008C17.24 124.064 16.624 124.984 15.84 125.768C15.072 126.536 14.16 127.144 13.104 127.592C12.048 128.04 10.92 128.264 9.72 128.264C8.52 128.264 7.384 128.04 6.312 127.592C5.256 127.144 4.336 126.536 3.552 125.768C2.784 124.984 2.176 124.064 1.728 123.008C1.28 121.936 1.056 120.8 1.056 119.6C1.056 118.4 1.28 117.272 1.728 116.216C2.176 115.144 2.784 114.224 3.552 113.456C4.336 112.672 5.256 112.056 6.312 111.608C7.384 111.16 8.52 110.936 9.72 110.936C10.92 110.936 12.048 111.16 13.104 111.608C14.16 112.056 15.072 112.672 15.84 113.456C16.624 114.224 17.24 115.144 17.688 116.216C18.136 117.272 18.36 118.4 18.36 119.6ZM16.488 119.6C16.488 118.624 16.312 117.712 15.96 116.864C15.608 116 15.128 115.264 14.52 114.656C13.928 114.032 13.216 113.544 12.384 113.192C11.552 112.824 10.664 112.64 9.72 112.64C8.76 112.64 7.864 112.824 7.032 113.192C6.2 113.544 5.48 114.032 4.872 114.656C4.28 115.264 3.808 116 3.456 116.864C3.104 117.712 2.928 118.624 2.928 119.6C2.928 120.576 3.104 121.488 3.456 122.336C3.808 123.184 4.28 123.92 4.872 124.544C5.48 125.168 6.2 125.664 7.032 126.032C7.864 126.384 8.76 126.56 9.72 126.56C10.664 126.56 11.552 126.384 12.384 126.032C13.216 125.664 13.928 125.168 14.52 124.544C15.128 123.92 15.608 123.184 15.96 122.336C16.312 121.488 16.488 120.576 16.488 119.6ZM20.9183 128V115.976H22.6943V117.68C23.0463 117.056 23.5103 116.576 24.0863 116.24C24.6623 115.888 25.3183 115.712 26.0543 115.712C26.2783 115.712 26.4783 115.728 26.6543 115.76C26.8303 115.776 27.0063 115.816 27.1823 115.88V117.512C26.9743 117.448 26.7663 117.4 26.5583 117.368C26.3503 117.32 26.1423 117.296 25.9343 117.296C25.1983 117.296 24.5503 117.512 23.9903 117.944C23.4303 118.36 22.9983 118.968 22.6943 119.768V128H20.9183ZM33.7959 128.096C32.9639 128.096 32.1799 127.936 31.4439 127.616C30.7239 127.296 30.0919 126.864 29.5479 126.32C29.0039 125.76 28.5719 125.104 28.2519 124.352C27.9479 123.6 27.7959 122.792 27.7959 121.928C27.7959 121.064 27.9479 120.256 28.2519 119.504C28.5719 118.752 29.0039 118.104 29.5479 117.56C30.0919 117 30.7319 116.56 31.4679 116.24C32.2039 115.92 32.9959 115.76 33.8439 115.76C34.5319 115.76 35.1959 115.888 35.8359 116.144C36.4919 116.384 37.0919 116.728 37.6359 117.176V115.976H39.3879V128.288C39.3879 129.824 38.9399 131 38.0439 131.816C37.1479 132.648 35.8679 133.064 34.2039 133.064C33.3719 133.064 32.5479 132.952 31.7319 132.728C30.9159 132.52 30.1719 132.216 29.4999 131.816L30.2679 130.424C30.9879 130.808 31.6519 131.088 32.2599 131.264C32.8839 131.44 33.5079 131.528 34.1319 131.528C35.2679 131.528 36.1319 131.256 36.7239 130.712C37.3159 130.168 37.6119 129.368 37.6119 128.312V126.704C37.0679 127.152 36.4679 127.496 35.8119 127.736C35.1719 127.976 34.4999 128.096 33.7959 128.096ZM29.5479 121.928C29.5479 122.568 29.6599 123.176 29.8839 123.752C30.1079 124.312 30.4119 124.8 30.7959 125.216C31.1959 125.616 31.6679 125.936 32.2119 126.176C32.7559 126.416 33.3319 126.536 33.9399 126.536C34.7079 126.536 35.4119 126.392 36.0519 126.104C36.6919 125.816 37.2119 125.408 37.6119 124.88V118.976C37.2119 118.464 36.6839 118.064 36.0279 117.776C35.3879 117.488 34.6919 117.344 33.9399 117.344C33.3159 117.344 32.7319 117.464 32.1879 117.704C31.6599 117.928 31.1959 118.248 30.7959 118.664C30.4119 119.08 30.1079 119.568 29.8839 120.128C29.6599 120.688 29.5479 121.288 29.5479 121.928ZM46.2024 128.216C44.8904 128.216 43.8184 127.88 42.9864 127.208C42.1704 126.536 41.7624 125.664 41.7624 124.592C41.7624 123.472 42.1944 122.584 43.0584 121.928C43.9224 121.256 45.0904 120.92 46.5624 120.92C47.2024 120.92 47.8184 120.992 48.4104 121.136C49.0184 121.28 49.5784 121.48 50.0904 121.736V120.152C50.0904 119.192 49.8184 118.472 49.2744 117.992C48.7304 117.496 47.9384 117.248 46.8984 117.248C46.3064 117.248 45.7064 117.336 45.0984 117.512C44.5064 117.672 43.8504 117.936 43.1304 118.304L42.4584 116.936C43.3224 116.52 44.1224 116.216 44.8584 116.024C45.5944 115.832 46.3304 115.736 47.0664 115.736C48.5864 115.736 49.7544 116.096 50.5704 116.816C51.4024 117.536 51.8184 118.568 51.8184 119.912V128H50.0904V126.824C49.5464 127.288 48.9464 127.64 48.2904 127.88C47.6504 128.104 46.9544 128.216 46.2024 128.216ZM43.4664 124.544C43.4664 125.216 43.7464 125.768 44.3064 126.2C44.8824 126.616 45.6184 126.824 46.5144 126.824C47.2344 126.824 47.8904 126.712 48.4824 126.488C49.0744 126.264 49.6104 125.912 50.0904 125.432V123.176C49.5944 122.84 49.0584 122.6 48.4824 122.456C47.9224 122.296 47.2984 122.216 46.6104 122.216C45.6504 122.216 44.8824 122.432 44.3064 122.864C43.7464 123.28 43.4664 123.84 43.4664 124.544ZM54.7854 128V115.976H56.5614V117.392C57.0254 116.848 57.5774 116.44 58.2174 116.168C58.8574 115.88 59.5694 115.736 60.3534 115.736C61.7134 115.736 62.8254 116.168 63.6894 117.032C64.5534 117.896 64.9854 119.016 64.9854 120.392V128H63.2334V120.752C63.2334 119.696 62.9294 118.856 62.3214 118.232C61.7134 117.608 60.8974 117.296 59.8734 117.296C59.1534 117.296 58.5054 117.456 57.9294 117.776C57.3694 118.096 56.9134 118.552 56.5614 119.144V128H54.7854ZM68.8453 113.672C68.5253 113.672 68.2453 113.552 68.0053 113.312C67.7653 113.072 67.6453 112.792 67.6453 112.472C67.6453 112.136 67.7653 111.856 68.0053 111.632C68.2453 111.392 68.5253 111.272 68.8453 111.272C69.1813 111.272 69.4613 111.392 69.6853 111.632C69.9253 111.856 70.0453 112.136 70.0453 112.472C70.0453 112.792 69.9253 113.072 69.6853 113.312C69.4613 113.552 69.1813 113.672 68.8453 113.672ZM69.7333 115.976V128H67.9573V115.976H69.7333ZM78.378 126.608C79.018 126.608 79.634 126.48 80.226 126.224C80.818 125.968 81.37 125.592 81.882 125.096L82.986 126.296C82.346 126.904 81.626 127.376 80.826 127.712C80.026 128.048 79.194 128.216 78.33 128.216C77.482 128.216 76.682 128.056 75.93 127.736C75.178 127.416 74.53 126.976 73.986 126.416C73.442 125.856 73.01 125.192 72.69 124.424C72.37 123.656 72.21 122.84 72.21 121.976C72.21 121.112 72.37 120.304 72.69 119.552C73.01 118.784 73.442 118.12 73.986 117.56C74.53 117 75.178 116.56 75.93 116.24C76.682 115.904 77.482 115.736 78.33 115.736C79.194 115.736 80.034 115.904 80.85 116.24C81.682 116.576 82.41 117.04 83.034 117.632L81.906 118.928C81.426 118.432 80.874 118.048 80.25 117.776C79.626 117.504 78.994 117.368 78.354 117.368C77.746 117.368 77.17 117.488 76.626 117.728C76.082 117.968 75.61 118.296 75.21 118.712C74.826 119.128 74.522 119.616 74.298 120.176C74.074 120.736 73.962 121.336 73.962 121.976C73.962 122.632 74.074 123.248 74.298 123.824C74.538 124.384 74.85 124.872 75.234 125.288C75.634 125.688 76.106 126.008 76.65 126.248C77.194 126.488 77.77 126.608 78.378 126.608ZM90.5589 128V111.2H97.8549C99.4869 111.2 100.799 111.648 101.791 112.544C102.783 113.424 103.279 114.592 103.279 116.048C103.279 117.504 102.775 118.68 101.767 119.576C100.775 120.472 99.4709 120.92 97.8549 120.92H92.4069V128H90.5589ZM97.7109 112.856H92.4069V119.312H97.7109C98.8469 119.312 99.7509 119.024 100.423 118.448C101.095 117.856 101.431 117.064 101.431 116.072C101.431 115.08 101.095 114.296 100.423 113.72C99.7509 113.144 98.8469 112.856 97.7109 112.856ZM105.762 128V115.976H107.538V117.68C107.89 117.056 108.354 116.576 108.93 116.24C109.506 115.888 110.162 115.712 110.898 115.712C111.122 115.712 111.322 115.728 111.498 115.76C111.674 115.776 111.85 115.816 112.026 115.88V117.512C111.818 117.448 111.61 117.4 111.402 117.368C111.194 117.32 110.986 117.296 110.778 117.296C110.042 117.296 109.394 117.512 108.834 117.944C108.274 118.36 107.842 118.968 107.538 119.768V128H105.762ZM112.64 121.976C112.64 121.112 112.8 120.296 113.12 119.528C113.44 118.76 113.872 118.096 114.416 117.536C114.976 116.976 115.632 116.536 116.384 116.216C117.136 115.896 117.936 115.736 118.784 115.736C119.632 115.736 120.424 115.896 121.16 116.216C121.912 116.536 122.56 116.976 123.104 117.536C123.664 118.096 124.104 118.76 124.424 119.528C124.744 120.296 124.904 121.112 124.904 121.976C124.904 122.856 124.744 123.68 124.424 124.448C124.104 125.216 123.664 125.88 123.104 126.44C122.56 127 121.912 127.44 121.16 127.76C120.424 128.08 119.632 128.24 118.784 128.24C117.936 128.24 117.136 128.08 116.384 127.76C115.632 127.44 114.976 127 114.416 126.44C113.872 125.88 113.44 125.216 113.12 124.448C112.8 123.68 112.64 122.856 112.64 121.976ZM118.784 126.656C119.392 126.656 119.96 126.536 120.488 126.296C121.032 126.056 121.496 125.728 121.88 125.312C122.28 124.88 122.592 124.384 122.816 123.824C123.04 123.248 123.152 122.632 123.152 121.976C123.152 121.32 123.04 120.712 122.816 120.152C122.592 119.576 122.28 119.08 121.88 118.664C121.496 118.248 121.032 117.92 120.488 117.68C119.96 117.44 119.392 117.32 118.784 117.32C118.176 117.32 117.6 117.44 117.056 117.68C116.528 117.92 116.064 118.248 115.664 118.664C115.28 119.08 114.968 119.576 114.728 120.152C114.504 120.712 114.392 121.32 114.392 121.976C114.392 122.632 114.504 123.248 114.728 123.824C114.952 124.384 115.256 124.88 115.64 125.312C116.04 125.728 116.512 126.056 117.056 126.296C117.6 126.536 118.176 126.656 118.784 126.656ZM136.779 128V126.728C136.267 127.208 135.675 127.576 135.003 127.832C134.347 128.072 133.643 128.192 132.891 128.192C132.043 128.192 131.251 128.032 130.515 127.712C129.779 127.392 129.139 126.96 128.595 126.416C128.051 125.856 127.619 125.192 127.299 124.424C126.995 123.656 126.843 122.84 126.843 121.976C126.843 121.112 126.995 120.304 127.299 119.552C127.619 118.784 128.051 118.128 128.595 117.584C129.139 117.024 129.779 116.584 130.515 116.264C131.267 115.944 132.067 115.784 132.915 115.784C133.603 115.784 134.275 115.904 134.931 116.144C135.603 116.368 136.211 116.704 136.755 117.152V111.2L138.531 110.792V128H136.779ZM128.595 121.952C128.595 122.608 128.707 123.224 128.931 123.8C129.171 124.376 129.491 124.872 129.891 125.288C130.291 125.704 130.763 126.032 131.307 126.272C131.851 126.512 132.435 126.632 133.059 126.632C133.811 126.632 134.507 126.488 135.147 126.2C135.803 125.896 136.339 125.48 136.755 124.952V119C136.339 118.488 135.803 118.088 135.147 117.8C134.491 117.496 133.795 117.344 133.059 117.344C131.811 117.344 130.755 117.784 129.891 118.664C129.027 119.544 128.595 120.64 128.595 121.952ZM143.255 115.976V123.224C143.255 124.28 143.559 125.12 144.167 125.744C144.775 126.368 145.591 126.68 146.615 126.68C147.335 126.68 147.975 126.52 148.535 126.2C149.111 125.864 149.575 125.4 149.927 124.808V115.976H151.703V128H149.927V126.608C149.463 127.152 148.911 127.56 148.271 127.832C147.647 128.104 146.943 128.24 146.159 128.24C144.783 128.24 143.663 127.808 142.799 126.944C141.935 126.08 141.503 124.96 141.503 123.584V115.976H143.255ZM160.339 126.608C160.979 126.608 161.595 126.48 162.187 126.224C162.779 125.968 163.331 125.592 163.843 125.096L164.947 126.296C164.307 126.904 163.587 127.376 162.787 127.712C161.987 128.048 161.155 128.216 160.291 128.216C159.443 128.216 158.643 128.056 157.891 127.736C157.139 127.416 156.491 126.976 155.947 126.416C155.403 125.856 154.971 125.192 154.651 124.424C154.331 123.656 154.171 122.84 154.171 121.976C154.171 121.112 154.331 120.304 154.651 119.552C154.971 118.784 155.403 118.12 155.947 117.56C156.491 117 157.139 116.56 157.891 116.24C158.643 115.904 159.443 115.736 160.291 115.736C161.155 115.736 161.995 115.904 162.811 116.24C163.643 116.576 164.371 117.04 164.995 117.632L163.867 118.928C163.387 118.432 162.835 118.048 162.211 117.776C161.587 117.504 160.955 117.368 160.315 117.368C159.707 117.368 159.131 117.488 158.587 117.728C158.043 117.968 157.571 118.296 157.171 118.712C156.787 119.128 156.483 119.616 156.259 120.176C156.035 120.736 155.923 121.336 155.923 121.976C155.923 122.632 156.035 123.248 156.259 123.824C156.499 124.384 156.811 124.872 157.195 125.288C157.595 125.688 158.067 126.008 158.611 126.248C159.155 126.488 159.731 126.608 160.339 126.608ZM168.75 125.312V117.488H166.158V115.976H168.75V112.928L170.502 112.472V115.976H174.126V117.488H170.502V124.856C170.502 125.496 170.646 125.96 170.934 126.248C171.222 126.52 171.694 126.656 172.35 126.656C172.686 126.656 172.982 126.632 173.238 126.584C173.51 126.536 173.798 126.456 174.102 126.344V127.904C173.798 128.016 173.454 128.096 173.07 128.144C172.702 128.192 172.342 128.216 171.99 128.216C170.95 128.216 170.15 127.968 169.59 127.472C169.03 126.976 168.75 126.256 168.75 125.312ZM175.038 126.344L176.118 125.192C176.662 125.704 177.27 126.104 177.942 126.392C178.63 126.664 179.326 126.8 180.03 126.8C180.99 126.8 181.774 126.6 182.382 126.2C182.99 125.8 183.294 125.28 183.294 124.64C183.294 124.128 183.11 123.728 182.742 123.44C182.39 123.136 181.83 122.928 181.062 122.816L178.974 122.528C177.774 122.352 176.878 122 176.286 121.472C175.71 120.928 175.422 120.2 175.422 119.288C175.422 118.28 175.846 117.448 176.694 116.792C177.542 116.12 178.622 115.784 179.934 115.784C180.798 115.784 181.614 115.912 182.382 116.168C183.166 116.424 183.926 116.824 184.662 117.368L183.726 118.568C183.054 118.12 182.398 117.784 181.758 117.56C181.134 117.336 180.494 117.224 179.838 117.224C179.022 117.224 178.35 117.408 177.822 117.776C177.31 118.144 177.054 118.624 177.054 119.216C177.054 119.728 177.23 120.128 177.582 120.416C177.934 120.688 178.502 120.88 179.286 120.992L181.374 121.28C182.574 121.44 183.47 121.8 184.062 122.36C184.67 122.904 184.974 123.632 184.974 124.544C184.974 125.056 184.846 125.544 184.59 126.008C184.35 126.456 184.006 126.848 183.558 127.184C183.126 127.504 182.614 127.76 182.022 127.952C181.43 128.128 180.79 128.216 180.102 128.216C179.11 128.216 178.174 128.056 177.294 127.736C176.43 127.4 175.678 126.936 175.038 126.344Z" fill="#555555"/>
<path d="M38.52 15.8V55H30.848V23.584L23.176 26.72V20.056L33.648 15.8H38.52ZM60.6754 55.56C58.0994 55.56 55.7474 55.0747 53.6194 54.104C51.4914 53.1333 49.6808 51.7707 48.1874 50.016C46.6941 48.2613 45.5181 46.1333 44.6594 43.632C43.8381 41.1307 43.4274 38.368 43.4274 35.344C43.4274 32.3573 43.8381 29.6133 44.6594 27.112C45.5181 24.6107 46.6941 22.4827 48.1874 20.728C49.7181 18.9733 51.5474 17.6107 53.6754 16.64C55.8034 15.6693 58.1368 15.184 60.6754 15.184C63.2514 15.184 65.6034 15.6693 67.7314 16.64C69.8594 17.6107 71.6701 18.9733 73.1634 20.728C74.6568 22.4827 75.8141 24.6107 76.6354 27.112C77.4941 29.6133 77.9234 32.3573 77.9234 35.344C77.9234 38.368 77.5128 41.1307 76.6914 43.632C75.8701 46.1333 74.6941 48.2613 73.1634 50.016C71.6701 51.7707 69.8594 53.1333 67.7314 54.104C65.6034 55.0747 63.2514 55.56 60.6754 55.56ZM60.6754 48.896C63.6994 48.896 66.0888 47.6827 67.8434 45.256C69.5981 42.8293 70.4754 39.5253 70.4754 35.344C70.4754 31.2373 69.5794 27.9707 67.7874 25.544C66.0328 23.08 63.6621 21.848 60.6754 21.848C57.6888 21.848 55.3181 23.08 53.5634 25.544C51.8088 27.9707 50.9314 31.2373 50.9314 35.344C50.9314 39.5253 51.8088 42.8293 53.5634 45.256C55.3181 47.6827 57.6888 48.896 60.6754 48.896ZM99.0114 55.56C96.4354 55.56 94.0834 55.0747 91.9554 54.104C89.8274 53.1333 88.0167 51.7707 86.5234 50.016C85.03 48.2613 83.854 46.1333 82.9954 43.632C82.174 41.1307 81.7634 38.368 81.7634 35.344C81.7634 32.3573 82.174 29.6133 82.9954 27.112C83.854 24.6107 85.03 22.4827 86.5234 20.728C88.054 18.9733 89.8834 17.6107 92.0114 16.64C94.1394 15.6693 96.4727 15.184 99.0114 15.184C101.587 15.184 103.939 15.6693 106.067 16.64C108.195 17.6107 110.006 18.9733 111.499 20.728C112.993 22.4827 114.15 24.6107 114.971 27.112C115.83 29.6133 116.259 32.3573 116.259 35.344C116.259 38.368 115.849 41.1307 115.027 43.632C114.206 46.1333 113.03 48.2613 111.499 50.016C110.006 51.7707 108.195 53.1333 106.067 54.104C103.939 55.0747 101.587 55.56 99.0114 55.56ZM99.0114 48.896C102.035 48.896 104.425 47.6827 106.179 45.256C107.934 42.8293 108.811 39.5253 108.811 35.344C108.811 31.2373 107.915 27.9707 106.123 25.544C104.369 23.08 101.998 21.848 99.0114 21.848C96.0247 21.848 93.654 23.08 91.8994 25.544C90.1447 27.9707 89.2674 31.2373 89.2674 35.344C89.2674 39.5253 90.1447 42.8293 91.8994 45.256C93.654 47.6827 96.0247 48.896 99.0114 48.896ZM128.387 35.68C125.699 35.68 123.534 34.7467 121.891 32.88C120.249 31.0133 119.427 28.568 119.427 25.544C119.427 22.5573 120.249 20.1307 121.891 18.264C123.534 16.3973 125.699 15.464 128.387 15.464C131.038 15.464 133.185 16.3973 134.827 18.264C136.47 20.1307 137.291 22.5573 137.291 25.544C137.291 28.568 136.47 31.0133 134.827 32.88C133.222 34.7467 131.075 35.68 128.387 35.68ZM128.387 31.592C129.731 31.592 130.777 31.0507 131.523 29.968C132.307 28.8853 132.699 27.4107 132.699 25.544C132.699 23.7147 132.307 22.2587 131.523 21.176C130.739 20.0933 129.694 19.552 128.387 19.552C127.043 19.552 125.979 20.0933 125.195 21.176C124.449 22.2587 124.057 23.7147 124.019 25.544C124.057 27.4107 124.449 28.8853 125.195 29.968C125.942 31.0507 127.006 31.592 128.387 31.592ZM131.915 55H126.203L148.379 15.8H154.147L131.915 55ZM152.467 55.28C149.779 55.28 147.614 54.3467 145.971 52.48C144.329 50.6133 143.507 48.168 143.507 45.144C143.507 42.1573 144.329 39.7307 145.971 37.864C147.614 35.9973 149.779 35.064 152.467 35.064C155.118 35.064 157.265 35.9973 158.907 37.864C160.55 39.7307 161.371 42.1573 161.371 45.144C161.371 48.168 160.55 50.6133 158.907 52.48C157.302 54.3467 155.155 55.28 152.467 55.28ZM152.467 51.192C153.811 51.192 154.857 50.6507 155.603 49.568C156.387 48.4853 156.779 47.0107 156.779 45.144C156.779 43.3147 156.387 41.8587 155.603 40.776C154.819 39.6933 153.774 39.152 152.467 39.152C151.123 39.152 150.059 39.6933 149.275 40.776C148.529 41.8587 148.137 43.3147 148.099 45.144C148.137 47.0107 148.529 48.4853 149.275 49.568C150.022 50.6507 151.086 51.192 152.467 51.192Z" fill="#222222"/>
<line x1="23" y1="72.5" x2="162" y2="72.5" stroke="#222222" stroke-width="3"/>
</svg>
