<svg width="92" height="13" viewBox="0 0 92 13" fill="none" xmlns="http://www.w3.org/2000/svg">
<g clip-path="url(#clip0_34_559)">
<path d="M7.22091 4.41278V2.80813C7.22091 2.36525 7.58035 2.00581 8.02323 2.00581H8.82556V0H7.22091C5.89146 0 4.81394 1.07752 4.81394 2.40697V4.41278H3.20929V6.41859H4.81394V12.8372H7.22091V6.41859H8.82556L9.62788 4.41278H7.22091Z" fill="#402F2C"/>
</g>
<g clip-path="url(#clip1_34_559)">
<path d="M52.4186 2.43827C51.9412 2.64767 51.4325 2.78648 50.9022 2.85387C51.4478 2.52813 51.8642 2.01625 52.0599 1.39926C51.5513 1.70254 50.9896 1.91676 50.3911 2.0363C49.9081 1.52201 49.2197 1.20349 48.4687 1.20349C47.0117 1.20349 45.8387 2.38612 45.8387 3.83592C45.8387 4.04452 45.8564 4.2451 45.8997 4.43605C43.7118 4.32935 41.7757 3.28071 40.4752 1.68328C40.2481 2.07722 40.1149 2.52813 40.1149 3.01353C40.1149 3.92497 40.5843 4.73291 41.2839 5.20067C40.8611 5.19265 40.4463 5.06989 40.0949 4.87653C40.0949 4.88455 40.0949 4.89498 40.0949 4.90541C40.0949 6.18432 41.0071 7.2466 42.2034 7.4913C41.9892 7.54987 41.7557 7.57796 41.5134 7.57796C41.3449 7.57796 41.1748 7.56833 41.0151 7.53303C41.3561 8.57524 42.3237 9.34146 43.4743 9.36633C42.5789 10.0668 41.442 10.4888 40.2112 10.4888C39.9954 10.4888 39.7884 10.4792 39.5814 10.4527C40.7472 11.2045 42.1288 11.6337 43.6187 11.6337C48.4615 11.6337 51.1092 7.62208 51.1092 4.14481C51.1092 4.02847 51.1052 3.91615 51.0996 3.80463C51.6219 3.43395 52.0607 2.97101 52.4186 2.43827Z" fill="#402F2C"/>
</g>
<g clip-path="url(#clip2_34_559)">
<path d="M91.9878 3.77417C91.9577 3.09208 91.8474 2.62315 91.6894 2.21681C91.5264 1.7855 91.2756 1.39935 90.9471 1.07833C90.6261 0.752326 90.2374 0.499003 89.8111 0.338547C89.4024 0.180539 88.9359 0.0702366 88.2538 0.0401632C87.5666 0.00754284 87.3485 0 85.6056 0C83.8627 0 83.6445 0.00754284 82.9599 0.0376163C82.2778 0.0676897 81.8089 0.17809 81.4026 0.336C80.9712 0.499004 80.5851 0.749779 80.2641 1.07833C79.9381 1.39935 79.6848 1.78805 79.5243 2.21436C79.3663 2.62315 79.256 3.08953 79.2259 3.77162C79.1933 4.4588 79.1857 4.67696 79.1857 6.41985C79.1857 8.16273 79.1933 8.38089 79.2233 9.06552C79.2534 9.74761 79.3638 10.2165 79.5218 10.6229C79.6848 11.0542 79.9381 11.4403 80.2641 11.7614C80.5851 12.0874 80.9738 12.3407 81.4001 12.5011C81.8089 12.6592 82.2753 12.7695 82.9574 12.7995C83.642 12.8297 83.8602 12.8371 85.6031 12.8371C87.346 12.8371 87.5642 12.8297 88.2488 12.7995C88.9309 12.7695 89.3998 12.6592 89.8061 12.5011C90.6688 12.1676 91.3509 11.4855 91.6844 10.6229C91.8423 10.2141 91.9527 9.74761 91.9828 9.06552C92.0129 8.38089 92.0204 8.16273 92.0204 6.41985C92.0204 4.67696 92.0179 4.4588 91.9878 3.77417ZM90.8318 9.01537C90.8042 9.64231 90.6989 9.98085 90.6111 10.2066C90.3954 10.7658 89.9515 11.2097 89.3923 11.4254C89.1666 11.5131 88.8256 11.6184 88.2011 11.646C87.524 11.6761 87.3209 11.6836 85.6081 11.6836C83.8953 11.6836 83.6897 11.6761 83.015 11.646C82.3881 11.6184 82.0496 11.5131 81.8239 11.4254C81.5456 11.3225 81.2922 11.1595 81.0866 10.9463C80.8735 10.7382 80.7105 10.4874 80.6076 10.2091C80.5198 9.9834 80.4145 9.64231 80.387 9.01792C80.3568 8.34082 80.3494 8.13766 80.3494 6.42484C80.3494 4.71203 80.3568 4.50641 80.387 3.83186C80.4145 3.20493 80.5198 2.86638 80.6076 2.64068C80.7105 2.36228 80.8735 2.10906 81.0892 1.90334C81.2972 1.69019 81.548 1.52718 81.8264 1.42442C82.0521 1.33665 82.3932 1.23135 83.0176 1.20372C83.6947 1.17365 83.8979 1.1661 85.6106 1.1661C87.3259 1.1661 87.529 1.17365 88.2036 1.20372C88.8306 1.23135 89.1691 1.33665 89.3948 1.42442C89.6731 1.52718 89.9264 1.69019 90.1321 1.90334C90.3452 2.11151 90.5082 2.36228 90.6111 2.64068C90.6989 2.86638 90.8042 3.20738 90.8318 3.83186C90.8619 4.50896 90.8694 4.71203 90.8694 6.42484C90.8694 8.13766 90.8619 8.33828 90.8318 9.01537Z" fill="#402F2C"/>
<path d="M85.6051 3.12207C83.7846 3.12207 82.3074 4.5991 82.3074 6.41976C82.3074 8.24043 83.7846 9.71746 85.6051 9.71746C87.4258 9.71746 88.9028 8.24043 88.9028 6.41976C88.9028 4.5991 87.4258 3.12207 85.6051 3.12207ZM85.6051 8.5589C84.424 8.5589 83.466 7.60095 83.466 6.41976C83.466 5.23857 84.424 4.28063 85.6051 4.28063C86.7863 4.28063 87.7443 5.23857 87.7443 6.41976C87.7443 7.60095 86.7863 8.5589 85.6051 8.5589Z" fill="#402F2C"/>
<path d="M89.8032 2.99178C89.8032 3.41693 89.4584 3.76165 89.0332 3.76165C88.6081 3.76165 88.2633 3.41693 88.2633 2.99178C88.2633 2.56654 88.6081 2.22192 89.0332 2.22192C89.4584 2.22192 89.8032 2.56654 89.8032 2.99178Z" fill="#402F2C"/>
</g>
<defs>
<clipPath id="clip0_34_559">
<rect width="12.8372" height="12.8372" fill="white"/>
</clipPath>
<clipPath id="clip1_34_559">
<rect width="12.8372" height="12.8372" fill="white" transform="translate(39.5814)"/>
</clipPath>
<clipPath id="clip2_34_559">
<rect width="12.8372" height="12.8372" fill="white" transform="translate(79.1627)"/>
</clipPath>
</defs>
</svg>
