<svg width="179" height="134" viewBox="0 0 179 134" fill="none" xmlns="http://www.w3.org/2000/svg">
<path d="M1.848 128V111.2H3.696V118.712H13.464V111.2H15.312V128H13.464V120.368H3.696V128H1.848ZM22.2259 128.216C20.9139 128.216 19.8419 127.88 19.0099 127.208C18.1939 126.536 17.7859 125.664 17.7859 124.592C17.7859 123.472 18.2179 122.584 19.0819 121.928C19.9459 121.256 21.1139 120.92 22.5859 120.92C23.2259 120.92 23.8419 120.992 24.4339 121.136C25.0419 121.28 25.6019 121.48 26.1139 121.736V120.152C26.1139 119.192 25.8419 118.472 25.2979 117.992C24.7539 117.496 23.9619 117.248 22.9219 117.248C22.3299 117.248 21.7299 117.336 21.1219 117.512C20.5299 117.672 19.8739 117.936 19.1539 118.304L18.4819 116.936C19.3459 116.52 20.1459 116.216 20.8819 116.024C21.6179 115.832 22.3539 115.736 23.0899 115.736C24.6099 115.736 25.7779 116.096 26.5939 116.816C27.4259 117.536 27.8419 118.568 27.8419 119.912V128H26.1139V126.824C25.5699 127.288 24.9699 127.64 24.3139 127.88C23.6739 128.104 22.9779 128.216 22.2259 128.216ZM19.4899 124.544C19.4899 125.216 19.7699 125.768 20.3299 126.2C20.9059 126.616 21.6419 126.824 22.5379 126.824C23.2579 126.824 23.9139 126.712 24.5059 126.488C25.0979 126.264 25.6339 125.912 26.1139 125.432V123.176C25.6179 122.84 25.0819 122.6 24.5059 122.456C23.9459 122.296 23.3219 122.216 22.6339 122.216C21.6739 122.216 20.9059 122.432 20.3299 122.864C19.7699 123.28 19.4899 123.84 19.4899 124.544ZM30.8089 132.92V115.976H32.5609V117.272C33.0729 116.776 33.6569 116.408 34.3129 116.168C34.9849 115.912 35.6969 115.784 36.4489 115.784C37.2969 115.784 38.0889 115.944 38.8249 116.264C39.5609 116.584 40.2009 117.024 40.7449 117.584C41.2889 118.128 41.7129 118.784 42.0169 119.552C42.3369 120.304 42.4969 121.112 42.4969 121.976C42.4969 122.84 42.3369 123.656 42.0169 124.424C41.7129 125.192 41.2889 125.856 40.7449 126.416C40.2009 126.96 39.5529 127.392 38.8009 127.712C38.0649 128.032 37.2729 128.192 36.4249 128.192C35.7209 128.192 35.0409 128.072 34.3849 127.832C33.7289 127.592 33.1289 127.248 32.5849 126.8V132.92H30.8089ZM36.2809 117.344C35.5289 117.344 34.8249 117.496 34.1689 117.8C33.5289 118.088 33.0009 118.496 32.5849 119.024V124.976C33.0009 125.488 33.5369 125.896 34.1929 126.2C34.8489 126.488 35.5449 126.632 36.2809 126.632C37.5449 126.632 38.6009 126.192 39.4489 125.312C40.3129 124.416 40.7449 123.312 40.7449 122C40.7449 121.344 40.6249 120.736 40.3849 120.176C40.1609 119.6 39.8489 119.104 39.4489 118.688C39.0489 118.272 38.5769 117.944 38.0329 117.704C37.4889 117.464 36.9049 117.344 36.2809 117.344ZM44.9651 132.92V115.976H46.7171V117.272C47.2291 116.776 47.8131 116.408 48.4691 116.168C49.1411 115.912 49.8531 115.784 50.6051 115.784C51.4531 115.784 52.2451 115.944 52.9811 116.264C53.7171 116.584 54.3571 117.024 54.9011 117.584C55.4451 118.128 55.8691 118.784 56.1731 119.552C56.4931 120.304 56.6531 121.112 56.6531 121.976C56.6531 122.84 56.4931 123.656 56.1731 124.424C55.8691 125.192 55.4451 125.856 54.9011 126.416C54.3571 126.96 53.7091 127.392 52.9571 127.712C52.2211 128.032 51.4291 128.192 50.5811 128.192C49.8771 128.192 49.1971 128.072 48.5411 127.832C47.8851 127.592 47.2851 127.248 46.7411 126.8V132.92H44.9651ZM50.4371 117.344C49.6851 117.344 48.9811 117.496 48.3251 117.8C47.6851 118.088 47.1571 118.496 46.7411 119.024V124.976C47.1571 125.488 47.6931 125.896 48.3491 126.2C49.0051 126.488 49.7011 126.632 50.4371 126.632C51.7011 126.632 52.7571 126.192 53.6051 125.312C54.4691 124.416 54.9011 123.312 54.9011 122C54.9011 121.344 54.7811 120.736 54.5411 120.176C54.3171 119.6 54.0051 119.104 53.6051 118.688C53.2051 118.272 52.7331 117.944 52.1891 117.704C51.6451 117.464 51.0611 117.344 50.4371 117.344ZM61.4606 129.56L62.1566 127.976L57.2606 115.976H59.2286L63.1166 125.84L67.3166 115.976H69.2366L63.2606 129.8C62.7486 130.952 62.1806 131.784 61.5566 132.296C60.9326 132.808 60.1406 133.064 59.1806 133.064C58.9566 133.064 58.7406 133.048 58.5326 133.016C58.3406 133 58.1806 132.976 58.0526 132.944V131.336C58.2126 131.368 58.3646 131.392 58.5086 131.408C58.6686 131.424 58.8526 131.432 59.0606 131.432C59.6046 131.432 60.0686 131.28 60.4526 130.976C60.8366 130.672 61.1726 130.2 61.4606 129.56ZM84.3473 126.56C85.3873 126.56 86.3793 126.36 87.3233 125.96C88.2673 125.544 89.0593 124.976 89.6993 124.256L90.8993 125.504C90.0673 126.368 89.0753 127.048 87.9233 127.544C86.7713 128.024 85.5633 128.264 84.2993 128.264C83.0833 128.264 81.9393 128.04 80.8672 127.592C79.8113 127.144 78.8913 126.536 78.1073 125.768C77.3233 124.984 76.7073 124.064 76.2593 123.008C75.8113 121.936 75.5873 120.8 75.5873 119.6C75.5873 118.4 75.8113 117.272 76.2593 116.216C76.7073 115.144 77.3233 114.224 78.1073 113.456C78.8913 112.672 79.8113 112.056 80.8672 111.608C81.9393 111.16 83.0833 110.936 84.2993 110.936C85.5953 110.936 86.8193 111.184 87.9713 111.68C89.1393 112.16 90.1313 112.832 90.9473 113.696L89.7233 114.992C89.0673 114.256 88.2513 113.68 87.2753 113.264C86.3153 112.848 85.3233 112.64 84.2993 112.64C83.3393 112.64 82.4353 112.824 81.5872 113.192C80.7553 113.544 80.0353 114.032 79.4273 114.656C78.8193 115.264 78.3393 116 77.9873 116.864C77.6353 117.712 77.4593 118.624 77.4593 119.6C77.4593 120.576 77.6353 121.496 77.9873 122.36C78.3393 123.208 78.8193 123.944 79.4273 124.568C80.0513 125.176 80.7793 125.664 81.6113 126.032C82.4593 126.384 83.3713 126.56 84.3473 126.56ZM94.5988 115.976V123.224C94.5988 124.28 94.9028 125.12 95.5108 125.744C96.1188 126.368 96.9348 126.68 97.9588 126.68C98.6788 126.68 99.3188 126.52 99.8788 126.2C100.455 125.864 100.919 125.4 101.271 124.808V115.976H103.047V128H101.271V126.608C100.807 127.152 100.255 127.56 99.6148 127.832C98.9908 128.104 98.2868 128.24 97.5028 128.24C96.1268 128.24 95.0068 127.808 94.1428 126.944C93.2788 126.08 92.8468 124.96 92.8468 123.584V115.976H94.5988ZM104.843 126.344L105.923 125.192C106.467 125.704 107.075 126.104 107.747 126.392C108.435 126.664 109.131 126.8 109.835 126.8C110.795 126.8 111.579 126.6 112.187 126.2C112.795 125.8 113.099 125.28 113.099 124.64C113.099 124.128 112.915 123.728 112.547 123.44C112.195 123.136 111.635 122.928 110.867 122.816L108.779 122.528C107.579 122.352 106.683 122 106.091 121.472C105.515 120.928 105.227 120.2 105.227 119.288C105.227 118.28 105.651 117.448 106.499 116.792C107.347 116.12 108.427 115.784 109.739 115.784C110.603 115.784 111.419 115.912 112.187 116.168C112.971 116.424 113.731 116.824 114.467 117.368L113.531 118.568C112.859 118.12 112.203 117.784 111.563 117.56C110.939 117.336 110.299 117.224 109.643 117.224C108.827 117.224 108.155 117.408 107.627 117.776C107.115 118.144 106.859 118.624 106.859 119.216C106.859 119.728 107.035 120.128 107.387 120.416C107.739 120.688 108.307 120.88 109.091 120.992L111.179 121.28C112.379 121.44 113.275 121.8 113.867 122.36C114.475 122.904 114.779 123.632 114.779 124.544C114.779 125.056 114.651 125.544 114.395 126.008C114.155 126.456 113.811 126.848 113.363 127.184C112.931 127.504 112.419 127.76 111.827 127.952C111.235 128.128 110.595 128.216 109.907 128.216C108.915 128.216 107.979 128.056 107.099 127.736C106.235 127.4 105.483 126.936 104.843 126.344ZM118.031 125.312V117.488H115.439V115.976H118.031V112.928L119.783 112.472V115.976H123.407V117.488H119.783V124.856C119.783 125.496 119.927 125.96 120.215 126.248C120.503 126.52 120.975 126.656 121.631 126.656C121.967 126.656 122.263 126.632 122.519 126.584C122.791 126.536 123.079 126.456 123.383 126.344V127.904C123.079 128.016 122.735 128.096 122.351 128.144C121.983 128.192 121.623 128.216 121.271 128.216C120.231 128.216 119.431 127.968 118.871 127.472C118.311 126.976 118.031 126.256 118.031 125.312ZM124.382 121.976C124.382 121.112 124.542 120.296 124.862 119.528C125.182 118.76 125.614 118.096 126.158 117.536C126.718 116.976 127.374 116.536 128.126 116.216C128.878 115.896 129.678 115.736 130.526 115.736C131.374 115.736 132.166 115.896 132.902 116.216C133.654 116.536 134.302 116.976 134.846 117.536C135.406 118.096 135.846 118.76 136.166 119.528C136.486 120.296 136.646 121.112 136.646 121.976C136.646 122.856 136.486 123.68 136.166 124.448C135.846 125.216 135.406 125.88 134.846 126.44C134.302 127 133.654 127.44 132.902 127.76C132.166 128.08 131.374 128.24 130.526 128.24C129.678 128.24 128.878 128.08 128.126 127.76C127.374 127.44 126.718 127 126.158 126.44C125.614 125.88 125.182 125.216 124.862 124.448C124.542 123.68 124.382 122.856 124.382 121.976ZM130.526 126.656C131.134 126.656 131.702 126.536 132.23 126.296C132.774 126.056 133.238 125.728 133.622 125.312C134.022 124.88 134.334 124.384 134.558 123.824C134.782 123.248 134.894 122.632 134.894 121.976C134.894 121.32 134.782 120.712 134.558 120.152C134.334 119.576 134.022 119.08 133.622 118.664C133.238 118.248 132.774 117.92 132.23 117.68C131.702 117.44 131.134 117.32 130.526 117.32C129.918 117.32 129.342 117.44 128.798 117.68C128.27 117.92 127.806 118.248 127.406 118.664C127.022 119.08 126.71 119.576 126.47 120.152C126.246 120.712 126.134 121.32 126.134 121.976C126.134 122.632 126.246 123.248 126.47 123.824C126.694 124.384 126.998 124.88 127.382 125.312C127.782 125.728 128.254 126.056 128.798 126.296C129.342 126.536 129.918 126.656 130.526 126.656ZM139.114 128V115.976H140.89V117.296C141.338 116.784 141.858 116.4 142.45 116.144C143.042 115.872 143.698 115.736 144.418 115.736C145.25 115.736 145.994 115.936 146.65 116.336C147.322 116.72 147.842 117.248 148.21 117.92C148.706 117.184 149.298 116.64 149.986 116.288C150.69 115.92 151.474 115.736 152.338 115.736C153.634 115.736 154.69 116.168 155.506 117.032C156.338 117.896 156.754 119.016 156.754 120.392V128H155.002V120.752C155.002 119.696 154.722 118.856 154.162 118.232C153.602 117.608 152.842 117.296 151.882 117.296C151.226 117.296 150.626 117.464 150.082 117.8C149.538 118.136 149.074 118.624 148.69 119.264C148.722 119.44 148.746 119.624 148.762 119.816C148.794 119.992 148.81 120.184 148.81 120.392V128H147.058V120.752C147.058 119.696 146.778 118.856 146.218 118.232C145.658 117.608 144.906 117.296 143.962 117.296C143.322 117.296 142.738 117.448 142.21 117.752C141.698 118.04 141.258 118.472 140.89 119.048V128H139.114ZM163.531 128.216C162.219 128.216 161.147 127.88 160.315 127.208C159.499 126.536 159.091 125.664 159.091 124.592C159.091 123.472 159.523 122.584 160.387 121.928C161.251 121.256 162.419 120.92 163.891 120.92C164.531 120.92 165.147 120.992 165.739 121.136C166.347 121.28 166.907 121.48 167.419 121.736V120.152C167.419 119.192 167.147 118.472 166.603 117.992C166.059 117.496 165.267 117.248 164.227 117.248C163.635 117.248 163.035 117.336 162.427 117.512C161.835 117.672 161.179 117.936 160.459 118.304L159.787 116.936C160.651 116.52 161.451 116.216 162.187 116.024C162.923 115.832 163.659 115.736 164.395 115.736C165.915 115.736 167.083 116.096 167.899 116.816C168.731 117.536 169.147 118.568 169.147 119.912V128H167.419V126.824C166.875 127.288 166.275 127.64 165.619 127.88C164.979 128.104 164.283 128.216 163.531 128.216ZM160.795 124.544C160.795 125.216 161.075 125.768 161.635 126.2C162.211 126.616 162.947 126.824 163.843 126.824C164.563 126.824 165.219 126.712 165.811 126.488C166.403 126.264 166.939 125.912 167.419 125.432V123.176C166.923 122.84 166.387 122.6 165.811 122.456C165.251 122.296 164.627 122.216 163.939 122.216C162.979 122.216 162.211 122.432 161.635 122.864C161.075 123.28 160.795 123.84 160.795 124.544ZM172.114 128V115.976H173.89V117.68C174.242 117.056 174.706 116.576 175.282 116.24C175.858 115.888 176.514 115.712 177.25 115.712C177.474 115.712 177.674 115.728 177.85 115.76C178.026 115.776 178.202 115.816 178.378 115.88V117.512C178.17 117.448 177.962 117.4 177.754 117.368C177.546 117.32 177.338 117.296 177.13 117.296C176.394 117.296 175.746 117.512 175.186 117.944C174.626 118.36 174.194 118.968 173.89 119.768V128H172.114Z" fill="#555555"/>
<path d="M31.52 15.8V55H23.848V23.584L16.176 26.72V20.056L26.648 15.8H31.52ZM41.2434 46.432C42.5128 46.432 43.5954 46.88 44.4914 47.776C45.3874 48.672 45.8354 49.7547 45.8354 51.024C45.8354 52.256 45.3874 53.32 44.4914 54.216C43.5954 55.112 42.5128 55.56 41.2434 55.56C40.0114 55.56 38.9474 55.112 38.0514 54.216C37.1554 53.32 36.7074 52.256 36.7074 51.024C36.7074 49.7547 37.1554 48.672 38.0514 47.776C38.9474 46.88 40.0114 46.432 41.2434 46.432ZM63.2374 15.128C65.8134 15.128 68.1654 15.6133 70.2934 16.584C72.4214 17.5173 74.2321 18.8427 75.7254 20.56C77.2561 22.24 78.4321 24.2747 79.2534 26.664C80.1121 29.0533 80.5414 31.6853 80.5414 34.56C80.5414 37.696 80.0748 40.5707 79.1414 43.184C78.2081 45.76 76.9014 47.9627 75.2214 49.792C73.5414 51.6213 71.5068 53.04 69.1174 54.048C66.7281 55.056 64.0961 55.56 61.2214 55.56C59.0934 55.56 56.9841 55.224 54.8934 54.552C52.8028 53.8427 51.0481 52.9093 49.6294 51.752L53.9974 46.264C55.1548 47.16 56.3681 47.8133 57.6374 48.224C58.9068 48.6347 60.2881 48.84 61.7814 48.84C65.1414 48.84 67.7734 47.7013 69.6774 45.424C71.6188 43.1093 72.6828 39.8427 72.8694 35.624C71.6001 37.0427 70.0321 38.1627 68.1654 38.984C66.2988 39.768 64.3201 40.16 62.2294 40.16C60.2508 40.16 58.4214 39.8613 56.7414 39.264C55.0614 38.6667 53.6054 37.8453 52.3734 36.8C51.1788 35.7173 50.2454 34.448 49.5734 32.992C48.9014 31.4987 48.5654 29.8747 48.5654 28.12C48.5654 26.2533 48.9388 24.536 49.6854 22.968C50.4321 21.3627 51.4401 19.9813 52.7094 18.824C54.0161 17.6667 55.5654 16.7707 57.3574 16.136C59.1868 15.464 61.1468 15.128 63.2374 15.128ZM63.4614 34.112C65.2161 34.112 66.8401 33.7387 68.3334 32.992C69.8641 32.2453 71.2268 31.1813 72.4214 29.8C71.8241 27.336 70.7414 25.3573 69.1734 23.864C67.6054 22.3707 65.7388 21.624 63.5734 21.624C61.4454 21.624 59.6534 22.2213 58.1974 23.416C56.7788 24.6107 56.0694 26.1227 56.0694 27.952C56.0694 29.7813 56.7601 31.2747 58.1414 32.432C59.5228 33.552 61.2961 34.112 63.4614 34.112ZM106.959 52.2L93.407 26.16V55H85.903V15.8H96.319L107.071 36.856L117.823 15.8H128.239V55H120.567V26.216L106.959 52.2ZM150.182 47.776H144.19V37.864H134.334V31.928H144.19V22.296H150.182V31.928H159.982V37.864H150.182V47.776Z" fill="#222222"/>
<line x1="16" y1="72.5" x2="163" y2="72.5" stroke="#222222" stroke-width="3"/>
</svg>
